<svg xmlns="http://www.w3.org/2000/svg" width="219" height="219" viewBox="0 0 219 219" fill="none"><rect width="218.541" height="218.541" rx="109.27" fill="#45371C"></rect><path d="M124.213 90.062L134.03 99.8792C134.828 100.661 135.901 101.099 137.018 101.099C138.135 101.099 139.208 100.661 140.006 99.8792L148.969 90.9157C149.752 90.1178 150.19 89.0451 150.19 87.9278C150.19 86.8105 149.752 85.7378 148.969 84.9399L139.152 75.1227M147.691 66.5859L106.714 107.562M113.542 124.209C113.542 137.174 103.031 147.685 90.0659 147.685C77.1004 147.685 66.5898 137.174 66.5898 124.209C66.5898 111.244 77.1004 100.733 90.0659 100.733C103.031 100.733 113.542 111.244 113.542 124.209Z" stroke="#C7C3BA" stroke-width="6.8294" stroke-linecap="round" stroke-linejoin="round"></path></svg>