<svg xmlns="http://www.w3.org/2000/svg" width="219" height="219" viewBox="0 0 219 219" fill="none"><rect width="218.541" height="218.541" rx="109.27" fill="#45371C"></rect><path d="M134.027 140.003L126.344 105.002L141.284 90.0627C147.686 83.6601 149.82 75.1234 147.686 70.855C143.418 68.7208 134.881 70.855 128.478 77.2576L113.539 92.1969L78.5385 84.5138C76.4044 84.087 74.697 84.9406 73.8433 86.648L72.5628 88.7822C71.7091 90.9164 72.136 93.0505 73.8433 94.3311L96.4657 109.27L87.929 122.075H75.1238L70.8555 126.344L83.6606 134.881L92.1973 147.686L96.4657 143.417V130.612L109.271 122.075L124.21 144.698C125.491 146.405 127.625 146.832 129.759 145.978L131.893 145.125C133.601 143.844 134.454 142.137 134.027 140.003Z" stroke="#C7C3BA" stroke-width="6.8294" stroke-linecap="round" stroke-linejoin="round"></path></svg>