<svg width="45" height="45" viewBox="0 0 45 45" fill="none" xmlns="http://www.w3.org/2000/svg">
<rect width="45" height="45" rx="22.5" fill="black"/>
<path d="M11 17.3568L19.3242 22.9416C20.4726 23.7108 21.0463 24.096 21.6664 24.246C22.215 24.378 22.7862 24.378 23.3336 24.246C23.9537 24.096 24.5274 23.7108 25.6758 22.9416L34 17.3568M16.7244 31.5H28.2756C30.2792 31.5 31.2809 31.5 32.0466 31.1076C32.7193 30.7623 33.2661 30.2116 33.6088 29.5344C34 28.764 34 27.756 34 25.74V19.26C34 17.244 34 16.236 33.61 15.4656C33.267 14.7882 32.7197 14.2375 32.0466 13.8924C31.2809 13.5 30.2792 13.5 28.2756 13.5H16.7244C14.7208 13.5 13.7191 13.5 12.9534 13.8924C12.2807 14.2377 11.7339 14.7884 11.3912 15.4656C11 16.236 11 17.244 11 19.26V25.74C11 27.756 11 28.764 11.39 29.5344C11.733 30.2118 12.2803 30.7625 12.9534 31.1076C13.7191 31.5 14.7208 31.5 16.7244 31.5Z" stroke="white" stroke-width="1.5" stroke-linecap="round" stroke-linejoin="round"/>
</svg>
