<svg width="45" height="45" viewBox="0 0 45 45" fill="none" xmlns="http://www.w3.org/2000/svg">
<path d="M0 22.5C0 10.0736 10.0736 0 22.5 0C34.9264 0 45 10.0736 45 22.5C45 34.9264 34.9264 45 22.5 45C10.0736 45 0 34.9264 0 22.5Z" fill="black"/>
<path d="M21.9565 12.7169C24.551 12.7169 27.0393 13.7475 28.8739 15.5821C30.7085 17.4167 31.7391 19.905 31.7391 22.4995C31.7391 25.1658 30.6739 27.5821 28.9424 29.3473C28.0327 30.278 26.946 31.0171 25.7462 31.5211C24.5464 32.0251 23.2579 32.2839 21.9565 32.2821C20.6719 32.2821 19.3998 32.0291 18.2129 31.5374C17.026 31.0458 15.9476 30.3252 15.0392 29.4168C14.1308 28.5084 13.4102 27.43 12.9186 26.2431C12.4269 25.0563 12.1739 23.7842 12.1739 22.4995C12.1739 21.2148 12.4269 19.9427 12.9186 18.7558C13.4102 17.569 14.1308 16.4905 15.0392 15.5821C15.9476 14.6737 17.026 13.9532 18.2129 13.4615C19.3998 12.9699 20.6719 12.7169 21.9565 12.7169ZM28.8326 32.2821C29.4312 31.8604 29.9855 31.3893 30.4957 30.8691C32.6892 28.6359 33.9167 25.6298 33.913 22.4995C33.913 15.8962 28.5598 10.543 21.9565 10.543C15.3533 10.543 10 15.8962 10 22.4995C10 29.1028 15.3533 34.456 21.9565 34.456H35V32.2821H28.8326ZM21.9565 15.9778C21.6682 15.9778 21.3918 16.0923 21.1879 16.2961C20.9841 16.5 20.8696 16.7764 20.8696 17.0647C20.8696 17.353 20.9841 17.6295 21.1879 17.8333C21.3918 18.0371 21.6682 18.1517 21.9565 18.1517C22.2448 18.1517 22.5213 18.0371 22.7251 17.8333C22.929 17.6295 23.0435 17.353 23.0435 17.0647C23.0435 16.7764 22.929 16.5 22.7251 16.2961C22.5213 16.0923 22.2448 15.9778 21.9565 15.9778ZM18.6957 17.0647C18.6957 16.1999 19.0392 15.3705 19.6507 14.7589C20.2623 14.1474 21.0917 13.8038 21.9565 13.8038C22.8214 13.8038 23.6508 14.1474 24.2623 14.7589C24.8738 15.3705 25.2174 16.1999 25.2174 17.0647C25.2174 17.9295 24.8738 18.759 24.2623 19.3705C23.6508 19.982 22.8214 20.3256 21.9565 20.3256C21.0917 20.3256 20.2623 19.982 19.6507 19.3705C19.0392 18.759 18.6957 17.9295 18.6957 17.0647ZM16.5217 21.4125C16.2335 21.4125 15.957 21.5271 15.7531 21.7309C15.5493 21.9347 15.4348 22.2112 15.4348 22.4995C15.4348 22.7878 15.5493 23.0642 15.7531 23.2681C15.957 23.4719 16.2335 23.5864 16.5217 23.5864C16.81 23.5864 17.0865 23.4719 17.2903 23.2681C17.4942 23.0642 17.6087 22.7878 17.6087 22.4995C17.6087 22.2112 17.4942 21.9347 17.2903 21.7309C17.0865 21.5271 16.81 21.4125 16.5217 21.4125ZM13.2609 22.4995C13.2609 22.0713 13.3452 21.6472 13.5091 21.2516C13.673 20.856 13.9132 20.4965 14.216 20.1937C14.5188 19.8909 14.8782 19.6507 15.2739 19.4868C15.6695 19.323 16.0935 19.2386 16.5217 19.2386C16.95 19.2386 17.374 19.323 17.7696 19.4868C18.1652 19.6507 18.5247 19.8909 18.8275 20.1937C19.1303 20.4965 19.3705 20.856 19.5344 21.2516C19.6983 21.6472 19.7826 22.0713 19.7826 22.4995C19.7826 23.3643 19.4391 24.1937 18.8275 24.8053C18.216 25.4168 17.3866 25.7604 16.5217 25.7604C15.6569 25.7604 14.8275 25.4168 14.216 24.8053C13.6044 24.1937 13.2609 23.3643 13.2609 22.4995ZM27.3913 21.4125C27.103 21.4125 26.8266 21.5271 26.6227 21.7309C26.4189 21.9347 26.3043 22.2112 26.3043 22.4995C26.3043 22.7878 26.4189 23.0642 26.6227 23.2681C26.8266 23.4719 27.103 23.5864 27.3913 23.5864C27.6796 23.5864 27.9561 23.4719 28.1599 23.2681C28.3637 23.0642 28.4783 22.7878 28.4783 22.4995C28.4783 22.2112 28.3637 21.9347 28.1599 21.7309C27.9561 21.5271 27.6796 21.4125 27.3913 21.4125ZM24.1304 22.4995C24.1304 21.6347 24.474 20.8052 25.0855 20.1937C25.6971 19.5822 26.5265 19.2386 27.3913 19.2386C28.2561 19.2386 29.0856 19.5822 29.6971 20.1937C30.3086 20.8052 30.6522 21.6347 30.6522 22.4995C30.6522 23.3643 30.3086 24.1937 29.6971 24.8053C29.0856 25.4168 28.2561 25.7604 27.3913 25.7604C26.5265 25.7604 25.6971 25.4168 25.0855 24.8053C24.474 24.1937 24.1304 23.3643 24.1304 22.4995ZM21.9565 26.8473C21.6682 26.8473 21.3918 26.9618 21.1879 27.1657C20.9841 27.3695 20.8696 27.646 20.8696 27.9343C20.8696 28.2226 20.9841 28.499 21.1879 28.7029C21.3918 28.9067 21.6682 29.0212 21.9565 29.0212C22.2448 29.0212 22.5213 28.9067 22.7251 28.7029C22.929 28.499 23.0435 28.2226 23.0435 27.9343C23.0435 27.646 22.929 27.3695 22.7251 27.1657C22.5213 26.9618 22.2448 26.8473 21.9565 26.8473ZM18.6957 27.9343C18.6957 27.0694 19.0392 26.24 19.6507 25.6285C20.2623 25.017 21.0917 24.6734 21.9565 24.6734C22.8214 24.6734 23.6508 25.017 24.2623 25.6285C24.8738 26.24 25.2174 27.0694 25.2174 27.9343C25.2174 28.7991 24.8738 29.6285 24.2623 30.2401C23.6508 30.8516 22.8214 31.1951 21.9565 31.1951C21.0917 31.1951 20.2623 30.8516 19.6507 30.2401C19.0392 29.6285 18.6957 28.7991 18.6957 27.9343Z" fill="white"/>
</svg>
