<svg width="45" height="45" viewBox="0 0 45 45" fill="none" xmlns="http://www.w3.org/2000/svg">
<path d="M0 22.5C0 10.0736 10.0736 0 22.5 0C34.9264 0 45 10.0736 45 22.5C45 34.9264 34.9264 45 22.5 45C10.0736 45 0 34.9264 0 22.5Z" fill="black"/>
<path d="M22.5 26.668C24.2259 26.668 25.625 25.2689 25.625 23.543C25.625 21.8171 24.2259 20.418 22.5 20.418C20.7741 20.418 19.375 21.8171 19.375 23.543C19.375 25.2689 20.7741 26.668 22.5 26.668Z" stroke="white" stroke-width="1.5"/>
<path d="M20.1841 31.875H24.8133C28.0643 31.875 29.6904 31.875 30.8581 31.1094C31.3621 30.7794 31.796 30.3532 32.1352 29.8553C32.9154 28.7094 32.9154 27.1125 32.9154 23.9209C32.9154 20.7292 32.9154 19.1323 32.1352 17.9865C31.796 17.4886 31.3621 17.0624 30.8581 16.7323C30.1081 16.2396 29.1685 16.0636 27.7299 16.0011C27.0435 16.0011 26.4529 15.4907 26.3185 14.8292C26.2158 14.3447 25.949 13.9105 25.5631 13.6C25.1773 13.2895 24.696 13.1217 24.2008 13.125H20.7966C19.7674 13.125 18.881 13.8386 18.6789 14.8292C18.5445 15.4907 17.9539 16.0011 17.2674 16.0011C15.8299 16.0636 14.8904 16.2407 14.1393 16.7323C13.6357 17.0625 13.2021 17.4887 12.8633 17.9865C12.082 19.1323 12.082 20.7282 12.082 23.9209C12.082 27.1136 12.082 28.7084 12.8622 29.8553C13.1997 30.3511 13.6331 30.7771 14.1393 31.1094C15.307 31.875 16.9331 31.875 20.1841 31.875Z" stroke="white" stroke-width="1.5"/>
<path d="M29.7917 20.418H28.75" stroke="white" stroke-width="1.5" stroke-linecap="round"/>
</svg>
