<svg width="1600" height="960" viewBox="0 0 1600 960" fill="none" xmlns="http://www.w3.org/2000/svg">
  <g fill="#DCEEFF">
    <path transform="translate(390 112) scale(1.02)" d="M1085 309c10-5 21-6 32-5 11 2 20 6 28 14 6 7 9 15 10 25 0 11 5 22 15 33 8 10 11 19 8 26-4 8-12 12-25 13-16 1-30-4-41-14-8-8-18-12-28-15-9-2-16-6-20-12-5-6-6-13-4-21 2-7 7-13 15-19 6-4 12-8 18-12z"/>
    <path transform="translate(502 155) scale(0.94)" d="M1195 340c8-4 16-5 24-4 8 1 15 4 20 10 5 5 7 11 7 19 0 8 4 17 11 25 6 8 8 15 6 21-2 6-9 10-18 10-12 1-22-3-30-11-6-5-13-9-20-10-7-2-12-5-15-10-3-4-4-10-2-16 1-5 5-10 10-14 5-3 10-6 14-10z"/>

    <path transform="translate(285 138) scale(0.84)" d="M397 223c20-9 41-13 62-11 17 1 31 7 43 18 9 9 14 21 15 37 0 20 8 39 23 58 18 22 24 42 16 60-7 17-23 24-48 22-33-4-58-20-75-48-11-18-24-31-39-40-13-7-21-16-24-28-2-11 1-23 9-35 5-11 11-22 18-33z"/>
    <path transform="translate(344 246) scale(0.92)" d="M503 356c14-7 30-9 47-6 17 2 31 10 42 24 10 13 15 28 15 45 0 19 10 40 30 62 16 19 22 34 18 47-5 14-18 22-39 24-25 2-48-5-69-23-16-13-35-22-57-26-18-4-31-12-40-24-8-11-10-24-6-39 3-12 11-22 24-30 14-9 26-19 35-30z"/>
    <path transform="translate(462 392) scale(0.86)" d="M645 492c10-5 22-6 34-4 12 2 23 8 31 18 8 10 12 22 12 35 1 15 7 30 20 46 12 13 17 25 14 36-3 11-14 18-31 19-21 2-39-3-54-15-12-10-25-16-40-19-13-3-22-9-29-18-6-9-8-19-4-31 3-10 9-18 19-24 10-7 19-14 28-23z"/>

    <path transform="translate(-220 470) scale(2.65 1.85)" d="M76 552c41-17 82-26 121-25 34 1 66 10 94 28 24 16 50 23 83 23 20 0 35 4 44 13 9 8 8 17-2 28-12 12-29 19-52 20-42 2-84 10-126 26-27 10-57 14-89 11-27-3-51-13-73-30-19-15-19-30 0-45z"/>

    <path transform="translate(638 764) scale(1.74 1.25)" d="M820 744c32-13 65-19 98-17 28 1 55 8 79 22 19 12 41 18 66 18 16 0 29 4 37 11 8 7 7 15-2 24-10 10-24 15-44 16-34 1-68 8-102 20-23 9-47 12-72 9-22-2-42-10-60-24-16-12-16-25 0-39z"/>
    <path transform="translate(900 788) scale(1.42)" d="M1111 765c26-10 52-14 78-11 21 2 39 9 53 22 11 11 17 24 17 41 1 18 8 35 22 53 14 17 19 31 14 42-6 13-19 20-40 20-28 1-51-8-71-26-14-13-30-22-49-27-16-4-28-12-36-23-7-10-8-22-4-35 4-12 11-22 23-29 13-9 24-18 33-27z"/>
    <path transform="translate(1090 824) scale(1.08)" d="M1300 775c15-6 29-8 43-6 13 1 24 6 33 15 7 7 11 17 11 28 0 13 5 25 16 38 9 11 12 21 9 30-4 9-13 14-28 15-18 1-33-4-46-15-9-8-19-13-31-16-10-2-18-7-23-14s-6-16-3-25c2-8 7-15 16-21 7-4 14-9 20-14z"/>
    <path transform="translate(1162 708) scale(0.98)" d="M1378 684c12-5 25-7 37-5 12 1 21 5 29 13 6 6 9 14 9 23 0 11 4 22 14 32 8 10 11 18 8 25-3 8-11 12-24 13-16 1-29-4-40-14-8-7-17-11-27-14-9-2-15-6-20-12-4-6-5-13-3-20 2-7 7-13 14-18 6-3 11-7 17-12z"/>
    <path transform="translate(768 690) scale(0.98)" d="M915 685c12-6 24-8 36-6 12 1 21 6 29 14 6 7 10 15 10 25 1 11 6 22 15 33 8 10 11 19 8 27-3 8-12 12-25 13-17 1-31-4-42-15-8-7-18-12-28-14-9-2-16-7-21-13-4-6-5-13-3-21 2-7 7-13 15-19 7-4 12-8 18-12z"/>
  </g>
</svg>
