<svg xmlns="http://www.w3.org/2000/svg" width="219" height="219" viewBox="0 0 219 219" fill="none"><rect width="218.541" height="218.541" rx="109.27" fill="#45371C"></rect><path d="M126.347 147.684V139.148C126.347 134.62 124.548 130.277 121.346 127.075C118.144 123.873 113.802 122.074 109.274 122.074H83.6633C79.1352 122.074 74.7925 123.873 71.5906 127.075C68.3887 130.277 66.5898 134.62 66.5898 139.148V147.684" stroke="white" stroke-opacity="0.7" stroke-width="8.53675" stroke-linecap="round" stroke-linejoin="round"></path><path d="M96.468 105.002C105.897 105.002 113.542 97.3584 113.542 87.929C113.542 78.4995 105.897 70.8555 96.468 70.8555C87.0386 70.8555 79.3945 78.4995 79.3945 87.929C79.3945 97.3584 87.0386 105.002 96.468 105.002Z" stroke="white" stroke-opacity="0.7" stroke-width="8.53675" stroke-linecap="round" stroke-linejoin="round"></path><path d="M126.348 105.002L134.884 113.538L151.958 96.4648" stroke="white" stroke-opacity="0.7" stroke-width="8.53675" stroke-linecap="round" stroke-linejoin="round"></path></svg>