<svg width="1800" height="980" viewBox="0 0 1800 980" fill="none" xmlns="http://www.w3.org/2000/svg">
  <g fill="#DCEEFF">
    <path d="M382 120c28-18 63-26 104-23 38 3 69 17 92 43 15 17 20 37 16 59-4 21 4 44 24 69 23 28 27 55 13 81-14 26-40 35-79 28-45-8-80-28-106-61-19-24-41-41-67-53-24-11-39-25-47-42-8-17-7-36 4-58 12-19 27-34 46-43z"/>
    <path d="M500 282c30-17 65-22 105-16 39 6 70 23 94 51 21 25 32 53 31 86 0 34 14 69 43 106 25 31 33 57 25 78-10 25-34 39-73 42-47 4-87-10-121-42-26-24-57-40-94-49-30-7-52-21-67-41-14-18-18-40-12-67 5-22 20-41 45-58 25-16 49-39 72-68z"/>
    <path d="M664 486c19-11 42-15 68-12 27 3 49 15 68 35 18 20 27 44 29 71 1 31 15 62 41 93 23 27 31 49 24 68-8 20-30 32-65 34-43 3-79-9-110-36-24-21-52-35-83-42-24-5-43-17-57-35-13-16-17-35-12-57 4-20 16-37 34-52 22-17 43-36 63-57z"/>

    <path d="M56 590c69-27 140-39 212-35 66 4 126 20 180 49 44 24 94 37 151 39 31 1 55 8 73 22 17 12 22 28 15 47-8 20-26 34-54 43-53 16-108 25-167 27-75 2-145 15-211 39-46 17-94 24-146 21-50-4-95-21-136-52-31-24-47-49-47-76 0-22 12-40 36-53 26-15 58-28 94-41z"/>

    <path d="M812 736c57-24 116-34 178-31 55 4 107 18 155 42 41 21 89 32 145 33 30 1 54 8 71 21 16 12 21 26 15 42-8 18-24 31-49 38-45 14-93 22-145 23-64 2-126 12-188 32-42 14-86 19-133 15-44-4-84-18-122-42-29-18-44-39-46-62-1-21 10-39 34-53 26-16 57-29 95-38z"/>
    <path d="M1218 770c45-17 88-23 131-19 39 4 72 18 100 42 23 20 36 44 38 73 1 31 14 62 37 95 20 27 26 49 18 66-10 21-33 32-70 32-50 0-92-16-127-47-27-24-58-41-93-50-28-7-50-20-64-39-14-18-18-39-11-63 6-21 21-39 44-53 22-14 44-26 66-37z"/>
    <path d="M1444 810c24-9 48-12 71-8 22 3 40 12 55 27 13 13 20 30 21 49 1 22 9 43 25 65 14 19 18 35 13 48-7 15-22 24-47 25-32 2-59-8-82-29-17-16-37-28-60-34-18-5-31-14-40-27-8-12-10-26-6-41 4-14 14-26 28-37 8-6 15-11 22-15z"/>
    <path d="M1540 698c18-7 35-9 53-6 17 2 31 9 42 21 9 10 14 23 14 38 0 18 7 35 22 51 12 14 16 26 12 37-5 12-18 19-38 20-26 2-48-6-66-24-13-12-29-20-47-25-14-3-25-11-33-21-7-10-9-22-5-34 4-12 12-22 25-30 8-5 14-9 21-13z"/>
    <path d="M1055 676c18-8 35-10 54-7 17 3 31 10 43 22 10 11 15 24 15 39 0 18 8 35 24 52 13 14 18 27 13 39-5 12-18 19-40 20-27 2-49-6-68-24-14-13-30-21-49-26-14-4-26-11-34-22-7-10-9-22-5-35 4-12 13-23 27-32 8-5 15-10 20-14z"/>
  </g>
</svg>
